<?xml version="1.0" encoding="UTF-8" standalone="no"?>
<svg
   width="45"
   height="26.000002"
   version="1.1"
   id="svg2"
   sodipodi:docname="py4pd-black.svg"
   inkscape:version="1.2.2 (b0a8486541, 2022-12-01)"
   xmlns:inkscape="http://www.inkscape.org/namespaces/inkscape"
   xmlns:sodipodi="http://sodipodi.sourceforge.net/DTD/sodipodi-0.dtd"
   xmlns="http://www.w3.org/2000/svg"
   xmlns:svg="http://www.w3.org/2000/svg"
   xmlns:rdf="http://www.w3.org/1999/02/22-rdf-syntax-ns#"
   xmlns:cc="http://creativecommons.org/ns#"
   xmlns:dc="http://purl.org/dc/elements/1.1/">
  <sodipodi:namedview
     id="namedview15"
     pagecolor="#ffffff"
     bordercolor="#000000"
     borderopacity="0.25"
     inkscape:showpageshadow="2"
     inkscape:pageopacity="0.0"
     inkscape:pagecheckerboard="0"
     inkscape:deskcolor="#d1d1d1"
     showgrid="false"
     inkscape:zoom="17.204726"
     inkscape:cx="20.110753"
     inkscape:cy="20.604804"
     inkscape:window-width="1920"
     inkscape:window-height="1011"
     inkscape:window-x="0"
     inkscape:window-y="0"
     inkscape:window-maximized="1"
     inkscape:current-layer="svg2" />
  <metadata
     id="metadata17">
    <rdf:RDF>
      <cc:Work
         rdf:about="">
        <dc:format>image/svg+xml</dc:format>
        <dc:type
           rdf:resource="http://purl.org/dc/dcmitype/StillImage" />
        <dc:title />
      </cc:Work>
    </rdf:RDF>
  </metadata>
  <defs
     id="defs15">
    <linearGradient
       id="a"
       x1="-133.26801"
       y1="-202.91"
       x2="-133.198"
       y2="-202.84"
       gradientTransform="matrix(189.38,0,0,189.81,25243.061,38519.17)"
       gradientUnits="userSpaceOnUse">
      <stop
         offset="0"
         stop-color="#387eb8"
         id="stop1743" />
      <stop
         offset="1"
         stop-color="#366994"
         id="stop1745" />
    </linearGradient>
    <linearGradient
       id="b"
       x1="-133.575"
       y1="-203.203"
       x2="-133.495"
       y2="-203.133"
       gradientTransform="matrix(189.38,0,0,189.81,25309.061,38583.42)"
       gradientUnits="userSpaceOnUse">
      <stop
         offset="0"
         stop-color="#ffe052"
         id="stop1748" />
      <stop
         offset="1"
         stop-color="#ffc331"
         id="stop1750" />
    </linearGradient>
    <linearGradient
       id="b-3"
       x1="-133.575"
       y1="-203.203"
       x2="-133.495"
       y2="-203.133"
       gradientTransform="matrix(189.38,0,0,189.80999,25309.061,38583.421)"
       gradientUnits="userSpaceOnUse">
      <stop
         offset="0"
         stop-color="#ffe052"
         id="stop2326" />
      <stop
         offset="1"
         stop-color="#ffc331"
         id="stop2328" />
    </linearGradient>
    <linearGradient
       id="a-6"
       x1="-133.26801"
       y1="-202.91"
       x2="-133.198"
       y2="-202.84"
       gradientTransform="matrix(189.38,0,0,189.80999,25243.062,38519.17)"
       gradientUnits="userSpaceOnUse">
      <stop
         offset="0"
         stop-color="#387eb8"
         id="stop2321" />
      <stop
         offset="1"
         stop-color="#366994"
         id="stop2323" />
    </linearGradient>
  </defs>
  <polyline
     transform="translate(-103.5,-98.499998)"
     points="104.0 99.0 148.0 99.0 148.0 124.0 104.0 124.0 104.0 99.0"
     id=".x7fb48cd26890.t7fb48cc1a7d0R obj"
     style="fill:none;fill-opacity:1;stroke:#000000;stroke-width:1;stroke-linejoin:miter;stroke-opacity:1"
     inkscape:export-filename="py4pd2.svg"
     inkscape:export-xdpi="96"
     inkscape:export-ydpi="96" />
  <rect
     transform="scale(1,-1)"
     x="0.5"
     y="-2.5"
     width="6.9999995"
     height="2.0000002"
     id=".x7fb48cd26890.t7fb48cc1a7d0i0 inlet"
     style="fill:#010101;stroke:#000000;stroke-width:1;stroke-opacity:1;fill-opacity:1" />
  <rect
     x="37.5"
     y="0.50000191"
     width="7"
     height="2"
     id=".x7fb48cd26890.t7fb48cc1a7d0i1 inlet"
     style="fill:#000000;stroke:#000000;stroke-width:1;stroke-opacity:1;fill-opacity:1" />
  <rect
     style="fill:#000000;stroke:#000000;stroke-width:0.998913;stroke-opacity:1;fill-opacity:1"
     id="rect4160"
     height="2.0010867"
     width="6.9810028"
     y="-25.413759"
     x="0.49945688"
     transform="scale(1,-1)" />
  <path
     d="m 22.49132,3.0088522 c -5.236452,0 -4.905303,2.2642127 -4.905303,2.2642127 v 2.3527159 h 4.979793 v 0.7375285 h -6.963006 c 0,0 -3.352067,-0.4130158 -3.352067,4.9008777 0,5.313892 2.959702,5.097797 2.959702,5.097797 h 1.708853 V 15.88315 c 0,0 -0.09587,-2.959702 2.876362,-2.959702 h 4.987167 c 0,0 2.781959,0.04426 2.781959,-2.693454 V 5.7377078 c 0,0 0.421865,-2.7377059 -5.046171,-2.7377059 v 0 z m -2.752457,1.5760985 a 0.89535963,0.89535963 0 1 1 -0.872496,0.9174855 v -0.01475 a 0.89535963,0.89535963 0 0 1 0.89536,-0.8953596 v 0 z"
     style="fill:#000000;stroke-width:0.999999"
     id="path2335" />
  <path
     d="m 22.638825,23.519521 c 5.236453,0 4.905302,-2.271589 4.905302,-2.271589 v -2.345339 h -4.979054 v -0.737529 h 6.984396 c 0,0 3.352067,0.374664 3.352067,-4.908253 0,-5.2829167 -2.959703,-5.0977971 -2.959703,-5.0977971 h -1.73098 v 2.4463821 c 0,0 0.09587,2.959702 -2.876361,2.959702 h -4.98938 c 0,0 -2.784171,-0.04204 -2.784171,2.695667 v 4.522525 c 0,0 -0.421866,2.737705 5.04617,2.737705 h 0.0295 z m 2.752458,-1.583474 a 0.89535963,0.89535963 0 1 1 0.872496,-0.917486 v 0.02213 a 0.89535963,0.89535963 0 0 1 -0.89536,0.895361 h 0.02213 z"
     style="fill:#000000;stroke-width:0.999999"
     id="path2337" />
</svg>
