<?xml version="1.0" encoding="UTF-8" standalone="no"?>
<svg
   width="29"
   height="29.000002"
   version="1.1"
   id="svg2"
   sodipodi:docname="py4pd-favicon.svg"
   inkscape:version="1.4.3 (0d15f75042, 2025-12-25)"
   xmlns:inkscape="http://www.inkscape.org/namespaces/inkscape"
   xmlns:sodipodi="http://sodipodi.sourceforge.net/DTD/sodipodi-0.dtd"
   xmlns="http://www.w3.org/2000/svg"
   xmlns:svg="http://www.w3.org/2000/svg"
   xmlns:rdf="http://www.w3.org/1999/02/22-rdf-syntax-ns#"
   xmlns:cc="http://creativecommons.org/ns#"
   xmlns:dc="http://purl.org/dc/elements/1.1/">
  <sodipodi:namedview
     id="namedview15"
     pagecolor="#ffffff"
     bordercolor="#000000"
     borderopacity="0.25"
     inkscape:showpageshadow="2"
     inkscape:pageopacity="0.0"
     inkscape:pagecheckerboard="0"
     inkscape:deskcolor="#d1d1d1"
     showgrid="false"
     inkscape:zoom="17.212339"
     inkscape:cx="20.33425"
     inkscape:cy="17.981287"
     inkscape:window-width="1860"
     inkscape:window-height="1164"
     inkscape:window-x="0"
     inkscape:window-y="0"
     inkscape:window-maximized="0"
     inkscape:current-layer="svg2" />
  <metadata
     id="metadata17">
    <rdf:RDF>
      <cc:Work
         rdf:about="">
        <dc:format>image/svg+xml</dc:format>
        <dc:type
           rdf:resource="http://purl.org/dc/dcmitype/StillImage" />
        <dc:title />
      </cc:Work>
    </rdf:RDF>
  </metadata>
  <defs
     id="defs15">
    <linearGradient
       id="a"
       x1="-133.26801"
       y1="-202.91"
       x2="-133.198"
       y2="-202.84"
       gradientTransform="matrix(201.62469,0,0,199.80002,26874.814,40546.263)"
       gradientUnits="userSpaceOnUse">
      <stop
         offset="0"
         stop-color="#387eb8"
         id="stop1743" />
      <stop
         offset="1"
         stop-color="#366994"
         id="stop1745" />
    </linearGradient>
    <linearGradient
       id="b"
       x1="-133.575"
       y1="-203.203"
       x2="-133.495"
       y2="-203.133"
       gradientTransform="matrix(201.62466,0,0,199.8,26943.935,40612.826)"
       gradientUnits="userSpaceOnUse">
      <stop
         offset="0"
         stop-color="#ffe052"
         id="stop1748" />
      <stop
         offset="1"
         stop-color="#ffc331"
         id="stop1750" />
    </linearGradient>
  </defs>
  <path
     d="m 7.7409128,1.0076313 c -3.4176964,0 -3.2015639,1.4737892 -3.2015639,1.4737892 v 1.5313969 h 3.250183 V 4.4928793 H 3.2449564 c 0,0 -2.1878075,-0.2688347 -2.1878075,3.1900101 0,3.4588456 1.9317208,3.3181846 1.9317208,3.3181846 h 1.115325 V 9.3875869 c 0,0 -0.062575,-1.9264858 1.8773266,-1.9264858 h 3.254996 c 0,0 1.8157117,0.0288 1.8157117,-1.753186 V 2.7838594 c 0,0 0.275341,-1.781989 -3.2935044,-1.781989 v 0 z M 5.9444562,2.0335226 A 0.58437813,0.58279495 0 1 1 5.3750005,2.6307197 v -0.0096 A 0.58437813,0.58279495 0 0 1 5.9593779,2.0383229 v 0 z"
     style="fill:url(#a);stroke-width:1.05861"
     id="path1757" />
  <path
     d="m 21.276373,27.96203 c 3.411786,0 3.196025,-1.478631 3.196025,-1.478631 v -1.526638 h -3.244077 v -0.480075 h 4.550647 c 0,0 2.184023,0.243878 2.184023,-3.194899 0,-3.43878 -1.92838,-3.318279 -1.92838,-3.318279 h -1.12781 v 1.592407 c 0,0 0.06247,1.926542 -1.87408,1.926542 h -3.250806 c 0,0 -1.814012,-0.02737 -1.814012,1.754675 v 2.94382 c 0,0 -0.274865,1.782039 3.287808,1.782039 h 0.01921 z m 1.793348,-1.03072 a 0.58336717,0.58281117 0 1 1 0.568473,-0.597213 v 0.0144 a 0.58336717,0.58281117 0 0 1 -0.583368,0.582812 h 0.01441 z"
     style="fill:url(#b);stroke-width:1.05863"
     id="path1759" />
  <rect
     style="fill:none;fill-opacity:1;fill-rule:evenodd;stroke:#000000;stroke-width:1;stroke-linejoin:round;stroke-miterlimit:0;paint-order:stroke fill markers;stroke-dasharray:none"
     id="rect9579"
     width="28"
     height="28"
     x="0.5"
     y="0.5"
     ry="3.1372843" />
  <g
     id="g1"
     transform="matrix(1.1504902,0,0,1.1504902,-2.1821087,-2.1821064)">
    <rect
       x="10.624278"
       y="10.580858"
       width="7.7514453"
       height="7.8382826"
       id="7fb48d028a00BASE"
       style="fill:#00fc04;stroke:#000000;stroke-width:0.4;stroke-dasharray:none" />
    <ellipse
       cx="14.5"
       cy="14.500001"
       id="7fb48d028a00BUT"
       style="fill:#00fc04;stroke:#000000;stroke-width:0.4;stroke-dasharray:none"
       rx="3.3589599"
       ry="3.3965893"
       inkscape:export-filename="7fb48d028a00BUT.png"
       inkscape:export-xdpi="317.79309"
       inkscape:export-ydpi="317.79309" />
  </g>
</svg>
