<?xml version="1.0" encoding="UTF-8" standalone="no"?>
<svg
   width="45"
   height="26.000002"
   version="1.1"
   id="svg2"
   sodipodi:docname="icon.svg"
   inkscape:version="1.2.2 (b0a8486541, 2022-12-01)"
   xmlns:inkscape="http://www.inkscape.org/namespaces/inkscape"
   xmlns:sodipodi="http://sodipodi.sourceforge.net/DTD/sodipodi-0.dtd"
   xmlns="http://www.w3.org/2000/svg"
   xmlns:svg="http://www.w3.org/2000/svg"
   xmlns:rdf="http://www.w3.org/1999/02/22-rdf-syntax-ns#"
   xmlns:cc="http://creativecommons.org/ns#"
   xmlns:dc="http://purl.org/dc/elements/1.1/">
  <sodipodi:namedview
     id="namedview15"
     pagecolor="#ffffff"
     bordercolor="#000000"
     borderopacity="0.25"
     inkscape:showpageshadow="2"
     inkscape:pageopacity="0.0"
     inkscape:pagecheckerboard="0"
     inkscape:deskcolor="#d1d1d1"
     showgrid="false"
     inkscape:zoom="10.742463"
     inkscape:cx="12.287685"
     inkscape:cy="32.627527"
     inkscape:window-width="1920"
     inkscape:window-height="1011"
     inkscape:window-x="0"
     inkscape:window-y="0"
     inkscape:window-maximized="1"
     inkscape:current-layer="svg2" />
  <metadata
     id="metadata17">
    <rdf:RDF>
      <cc:Work
         rdf:about="">
        <dc:format>image/svg+xml</dc:format>
        <dc:type
           rdf:resource="http://purl.org/dc/dcmitype/StillImage" />
        <dc:title />
      </cc:Work>
    </rdf:RDF>
  </metadata>
  <defs
     id="defs15" />
  <polyline
     transform="translate(-103.5,-98.499998)"
     points="104.0 99.0 148.0 99.0 148.0 124.0 104.0 124.0 104.0 99.0"
     id=".x7fb48cd26890.t7fb48cc1a7d0R obj"
     style="fill:none;fill-opacity:1;stroke:#ffffff;stroke-width:1;stroke-linejoin:miter;stroke-opacity:1"
     inkscape:export-filename="py4pd2.svg"
     inkscape:export-xdpi="96"
     inkscape:export-ydpi="96" />
  <rect
     transform="scale(1,-1)"
     x="0.5"
     y="-2.5"
     width="6.9999995"
     height="2.0000002"
     id=".x7fb48cd26890.t7fb48cc1a7d0i0 inlet"
     style="fill:#ffffff;stroke:#ffffff;stroke-width:1;stroke-opacity:1" />
  <rect
     x="37.5"
     y="0.50000191"
     width="7"
     height="2"
     id=".x7fb48cd26890.t7fb48cc1a7d0i1 inlet"
     style="fill:#ffffff;stroke:#ffffff;stroke-width:1;stroke-opacity:1" />
  <rect
     style="fill:#ffffff;stroke:#ffffff;stroke-width:0.998913;stroke-opacity:1"
     id="rect4160"
     height="2.0010867"
     width="6.9810028"
     y="-25.413759"
     x="0.49945688"
     transform="scale(1,-1)" />
  <path
     d="m 22.409325,1.9139479 c -5.598199,0 -5.244172,2.42063 -5.244172,2.42063 v 2.515247 h 5.323808 v 0.788479 h -7.444027 c 0,0 -3.583636,-0.441548 -3.583636,5.2394411 0,5.680989 3.164165,5.449965 3.164165,5.449965 h 1.826905 v -2.650077 c 0,0 -0.102502,-3.164165 3.075067,-3.164165 h 5.331693 c 0,0 2.974142,0.04731 2.974142,-2.8795251 v -4.802623 c 0,0 0.45101,-2.926833 -5.394772,-2.926833 v 0 z m -2.942603,1.684979 a 0.95721314,0.95721314 0 1 1 -0.93277,0.980868 v -0.01577 a 0.95721314,0.95721314 0 0 1 0.957213,-0.957214 v 0 z"
     style="fill:#ffffff;stroke-width:1"
     id="path364" />
  <path
     d="m 22.567021,23.841541 c 5.598198,0 5.244171,-2.428514 5.244171,-2.428514 v -2.507363 h -5.323019 v -0.788478 h 7.466893 c 0,0 3.583636,0.400547 3.583636,-5.247326 0,-5.6478731 -3.164165,-5.4499651 -3.164165,-5.4499651 h -1.85056 v 2.6153841 c 0,0 0.102502,3.164165 -3.075067,3.164165 h -5.334058 c 0,0 -2.976507,-0.04494 -2.976507,2.88189 v 4.834951 c 0,0 -0.45101,2.926833 5.394771,2.926833 h 0.03154 z m 2.942602,-1.692864 a 0.95721314,0.95721314 0 1 1 0.93277,-0.980867 v 0.02365 a 0.95721314,0.95721314 0 0 1 -0.957213,0.957213 h 0.02366 z"
     style="fill:#ffffff;stroke-width:1"
     id="path366" />
</svg>
