<?xml version="1.0" encoding="UTF-8" standalone="no"?>
<svg
   width="45"
   height="26.000002"
   version="1.1"
   id="svg2"
   sodipodi:docname="py4pd-black.svg"
   inkscape:version="1.2.2 (b0a8486541, 2022-12-01)"
   xmlns:inkscape="http://www.inkscape.org/namespaces/inkscape"
   xmlns:sodipodi="http://sodipodi.sourceforge.net/DTD/sodipodi-0.dtd"
   xmlns="http://www.w3.org/2000/svg"
   xmlns:svg="http://www.w3.org/2000/svg"
   xmlns:rdf="http://www.w3.org/1999/02/22-rdf-syntax-ns#"
   xmlns:cc="http://creativecommons.org/ns#"
   xmlns:dc="http://purl.org/dc/elements/1.1/">
  <sodipodi:namedview
     id="namedview15"
     pagecolor="#ffffff"
     bordercolor="#000000"
     borderopacity="0.25"
     inkscape:showpageshadow="2"
     inkscape:pageopacity="0.0"
     inkscape:pagecheckerboard="0"
     inkscape:deskcolor="#d1d1d1"
     showgrid="false"
     inkscape:zoom="17.204726"
     inkscape:cx="19.994506"
     inkscape:cy="20.430433"
     inkscape:window-width="1920"
     inkscape:window-height="1011"
     inkscape:window-x="0"
     inkscape:window-y="0"
     inkscape:window-maximized="1"
     inkscape:current-layer="svg2" />
  <metadata
     id="metadata17">
    <rdf:RDF>
      <cc:Work
         rdf:about="">
        <dc:format>image/svg+xml</dc:format>
        <dc:type
           rdf:resource="http://purl.org/dc/dcmitype/StillImage" />
        <dc:title />
      </cc:Work>
    </rdf:RDF>
  </metadata>
  <defs
     id="defs15">
    <linearGradient
       id="a"
       x1="-133.26801"
       y1="-202.91"
       x2="-133.198"
       y2="-202.84"
       gradientTransform="matrix(189.38,0,0,189.81,25243.061,38519.17)"
       gradientUnits="userSpaceOnUse">
      <stop
         offset="0"
         stop-color="#387eb8"
         id="stop1743" />
      <stop
         offset="1"
         stop-color="#366994"
         id="stop1745" />
    </linearGradient>
    <linearGradient
       id="b"
       x1="-133.575"
       y1="-203.203"
       x2="-133.495"
       y2="-203.133"
       gradientTransform="matrix(189.38,0,0,189.81,25309.061,38583.42)"
       gradientUnits="userSpaceOnUse">
      <stop
         offset="0"
         stop-color="#ffe052"
         id="stop1748" />
      <stop
         offset="1"
         stop-color="#ffc331"
         id="stop1750" />
    </linearGradient>
  </defs>
  <polyline
     transform="translate(-103.5,-98.499998)"
     points="104.0 99.0 148.0 99.0 148.0 124.0 104.0 124.0 104.0 99.0"
     id=".x7fb48cd26890.t7fb48cc1a7d0R obj"
     style="fill:none;fill-opacity:1;stroke:#000000;stroke-width:1;stroke-linejoin:miter;stroke-opacity:1"
     inkscape:export-filename="py4pd2.svg"
     inkscape:export-xdpi="96"
     inkscape:export-ydpi="96" />
  <rect
     transform="scale(1,-1)"
     x="0.5"
     y="-2.5"
     width="6.9999995"
     height="2.0000002"
     id=".x7fb48cd26890.t7fb48cc1a7d0i0 inlet"
     style="fill:#010101;stroke:#000000;stroke-width:1;stroke-opacity:1;fill-opacity:1" />
  <rect
     x="37.5"
     y="0.50000191"
     width="7"
     height="2"
     id=".x7fb48cd26890.t7fb48cc1a7d0i1 inlet"
     style="fill:#000000;stroke:#000000;stroke-width:1;stroke-opacity:1;fill-opacity:1" />
  <rect
     style="fill:#000000;stroke:#000000;stroke-width:0.998913;stroke-opacity:1;fill-opacity:1"
     id="rect4160"
     height="2.0010867"
     width="6.9810028"
     y="-25.413759"
     x="0.49945688"
     transform="scale(1,-1)" />
  <path
     d="m 22.404165,1.421279 c -5.916738,0 -5.542567,2.5583643 -5.542567,2.5583643 v 2.6583654 h 5.626735 v 0.8333434 h -7.867595 c 0,0 -3.787546,-0.4666723 -3.787546,5.5375669 0,6.004239 3.344207,5.76007 3.344207,5.76007 h 1.930857 v -2.800868 c 0,0 -0.108335,-3.344206 3.250039,-3.344206 h 5.635068 c 0,0 3.143371,0.05 3.143371,-3.0433708 V 4.5046496 c 0,0 0.476673,-3.0933707 -5.701735,-3.0933707 v 0 z m -3.110037,1.7808549 a 1.0116789,1.0116789 0 1 1 -0.985846,1.0366792 v -0.016667 a 1.0116789,1.0116789 0 0 1 1.011679,-1.0116789 v 0 z"
     style="fill:#000000;stroke-width:1"
     id="path1757" />
  <path
     d="m 22.570834,24.596559 c 5.916738,0 5.542567,-2.566698 5.542567,-2.566698 v -2.650032 h -5.625902 v -0.833343 h 7.891762 c 0,0 3.787546,0.423338 3.787546,-5.5459 0,-5.9692392 -3.344207,-5.76007 -3.344207,-5.76007 h -1.955857 v 2.7642 c 0,0 0.108335,3.344207 -3.250039,3.344207 h -5.637568 c 0,0 -3.145872,-0.0475 -3.145872,3.04587 v 5.110062 c 0,0 -0.476672,3.093371 5.701736,3.093371 h 0.03333 z m 3.110037,-1.789188 a 1.0116789,1.0116789 0 1 1 0.985846,-1.036679 v 0.025 a 1.0116789,1.0116789 0 0 1 -1.011679,1.011679 h 0.025 z"
     style="fill:#000000;stroke-width:1"
     id="path1759" />
</svg>
