<?xml version="1.0" encoding="UTF-8" standalone="no"?>
<svg
   width="45"
   height="26.000002"
   version="1.1"
   id="svg2"
   sodipodi:docname="py4pd-black.svg"
   inkscape:version="1.2.2 (b0a8486541, 2022-12-01)"
   xmlns:inkscape="http://www.inkscape.org/namespaces/inkscape"
   xmlns:sodipodi="http://sodipodi.sourceforge.net/DTD/sodipodi-0.dtd"
   xmlns="http://www.w3.org/2000/svg"
   xmlns:svg="http://www.w3.org/2000/svg"
   xmlns:rdf="http://www.w3.org/1999/02/22-rdf-syntax-ns#"
   xmlns:cc="http://creativecommons.org/ns#"
   xmlns:dc="http://purl.org/dc/elements/1.1/">
  <sodipodi:namedview
     id="namedview15"
     pagecolor="#ffffff"
     bordercolor="#000000"
     borderopacity="0.25"
     inkscape:showpageshadow="2"
     inkscape:pageopacity="0.0"
     inkscape:pagecheckerboard="0"
     inkscape:deskcolor="#d1d1d1"
     showgrid="false"
     inkscape:zoom="17.204726"
     inkscape:cx="20.05263"
     inkscape:cy="20.54668"
     inkscape:window-width="1920"
     inkscape:window-height="1011"
     inkscape:window-x="0"
     inkscape:window-y="0"
     inkscape:window-maximized="1"
     inkscape:current-layer="svg2" />
  <metadata
     id="metadata17">
    <rdf:RDF>
      <cc:Work
         rdf:about="">
        <dc:format>image/svg+xml</dc:format>
        <dc:type
           rdf:resource="http://purl.org/dc/dcmitype/StillImage" />
        <dc:title />
      </cc:Work>
    </rdf:RDF>
  </metadata>
  <defs
     id="defs15">
    <linearGradient
       id="a"
       x1="-133.26801"
       y1="-202.91"
       x2="-133.198"
       y2="-202.84"
       gradientTransform="matrix(189.38,0,0,189.81,25243.061,38519.17)"
       gradientUnits="userSpaceOnUse">
      <stop
         offset="0"
         stop-color="#387eb8"
         id="stop1743" />
      <stop
         offset="1"
         stop-color="#366994"
         id="stop1745" />
    </linearGradient>
    <linearGradient
       id="b"
       x1="-133.575"
       y1="-203.203"
       x2="-133.495"
       y2="-203.133"
       gradientTransform="matrix(189.38,0,0,189.81,25309.061,38583.42)"
       gradientUnits="userSpaceOnUse">
      <stop
         offset="0"
         stop-color="#ffe052"
         id="stop1748" />
      <stop
         offset="1"
         stop-color="#ffc331"
         id="stop1750" />
    </linearGradient>
  </defs>
  <polyline
     transform="translate(-103.5,-98.499998)"
     points="104.0 99.0 148.0 99.0 148.0 124.0 104.0 124.0 104.0 99.0"
     id=".x7fb48cd26890.t7fb48cc1a7d0R obj"
     style="fill:none;fill-opacity:1;stroke:#000000;stroke-width:1;stroke-linejoin:miter;stroke-opacity:1"
     inkscape:export-filename="py4pd2.svg"
     inkscape:export-xdpi="96"
     inkscape:export-ydpi="96" />
  <rect
     transform="scale(1,-1)"
     x="0.5"
     y="-2.5"
     width="6.9999995"
     height="2.0000002"
     id=".x7fb48cd26890.t7fb48cc1a7d0i0 inlet"
     style="fill:#010101;stroke:#000000;stroke-width:1;stroke-opacity:1;fill-opacity:1" />
  <rect
     x="37.5"
     y="0.50000191"
     width="7"
     height="2"
     id=".x7fb48cd26890.t7fb48cc1a7d0i1 inlet"
     style="fill:#000000;stroke:#000000;stroke-width:1;stroke-opacity:1;fill-opacity:1" />
  <rect
     style="fill:#000000;stroke:#000000;stroke-width:0.998913;stroke-opacity:1;fill-opacity:1"
     id="rect4160"
     height="2.0010867"
     width="6.9810028"
     y="-25.413759"
     x="0.49945688"
     transform="scale(1,-1)" />
  <path
     d="m 22.422366,3.00297 c -4.793102,0 -4.48999,2.0725103 -4.48999,2.0725103 v 2.1535204 h 4.558174 v 0.6750849 h -6.373475 c 0,0 -3.068262,-0.3780475 -3.068262,4.4859384 0,4.863985 2.709116,4.666186 2.709116,4.666186 h 1.564172 v -2.26896 c 0,0 -0.08776,-2.709115 2.63283,-2.709115 h 4.564923 c 0,0 2.54642,0.0405 2.54642,-2.4654099 V 5.5007837 c 0,0 0.386149,-2.5059147 -4.618931,-2.5059147 v 0 z M 19.90295,4.4456262 a 0.81955293,0.81955293 0 1 1 -0.798626,0.8398055 v -0.013501 a 0.81955293,0.81955293 0 0 1 0.819553,-0.8195529 v 0 z"
     style="fill:#000000;stroke-width:1"
     id="path1757" />
  <path
     d="m 22.557382,21.777077 c 4.793102,0 4.489989,-2.079261 4.489989,-2.079261 v -2.14677 h -4.557497 v -0.675084 h 6.393053 c 0,0 3.06826,0.342943 3.06826,-4.492689 0,-4.8356322 -2.709115,-4.666186 -2.709115,-4.666186 h -1.584424 v 2.2392563 c 0,0 0.08776,2.7091147 -2.632831,2.7091147 h -4.566948 c 0,0 -2.548445,-0.03848 -2.548445,2.467435 v 4.13962 c 0,0 -0.386148,2.505915 4.618929,2.505915 h 0.027 z m 2.519417,-1.449406 a 0.81955293,0.81955293 0 1 1 0.798625,-0.839806 v 0.02025 a 0.81955293,0.81955293 0 0 1 -0.819552,0.819554 h 0.02025 z"
     style="fill:#000000;stroke-width:1"
     id="path1759"
     inkscape:export-filename="py4pd-logo-black.png"
     inkscape:export-xdpi="213.33333"
     inkscape:export-ydpi="213.33333" />
</svg>
